<mxfile host="app.diagrams.net" modified="2021-09-18T10:19:31.204Z" agent="5.0 (Windows NT 10.0; Win64; x64) AppleWebKit/537.36 (KHTML, like Gecko) Chrome/93.0.4577.82 Safari/537.36" etag="caUuOV9vOFj8i_scOBt-" version="15.2.7" type="github">
  <diagram id="QYX2wHTmf0ZhpTRwsHYE" name="Page-1">
    <mxGraphModel dx="782" dy="468" grid="1" gridSize="10" guides="1" tooltips="1" connect="1" arrows="1" fold="1" page="1" pageScale="1" pageWidth="850" pageHeight="1100" math="0" shadow="0">
      <root>
        <mxCell id="0" />
        <mxCell id="1" parent="0" />
        <mxCell id="RThocE2uosENRFC7UYjA-23" value="" style="rounded=0;whiteSpace=wrap;html=1;fillColor=#FFFF00;" vertex="1" parent="1">
          <mxGeometry x="60" y="50" width="600" height="30" as="geometry" />
        </mxCell>
        <mxCell id="RThocE2uosENRFC7UYjA-26" value="&lt;font style=&quot;font-size: 18px&quot;&gt;&lt;b&gt;TRAIN SET&lt;/b&gt;&lt;/font&gt;" style="text;html=1;resizable=0;autosize=1;align=center;verticalAlign=middle;points=[];fillColor=none;strokeColor=none;rounded=0;" vertex="1" parent="1">
          <mxGeometry x="280" y="55" width="110" height="20" as="geometry" />
        </mxCell>
        <mxCell id="RThocE2uosENRFC7UYjA-28" value="" style="rounded=0;whiteSpace=wrap;html=1;fillColor=#FFFF00;" vertex="1" parent="1">
          <mxGeometry x="60" y="140" width="360" height="30" as="geometry" />
        </mxCell>
        <mxCell id="RThocE2uosENRFC7UYjA-30" value="" style="rounded=0;whiteSpace=wrap;html=1;fillColor=#0066CC;" vertex="1" parent="1">
          <mxGeometry x="420" y="140" width="240" height="30" as="geometry" />
        </mxCell>
        <mxCell id="RThocE2uosENRFC7UYjA-31" value="&lt;font style=&quot;font-size: 18px&quot;&gt;&lt;b&gt;TRAIN SET&lt;/b&gt;&lt;/font&gt;" style="text;html=1;resizable=0;autosize=1;align=center;verticalAlign=middle;points=[];fillColor=none;strokeColor=none;rounded=0;" vertex="1" parent="1">
          <mxGeometry x="185" y="145" width="110" height="20" as="geometry" />
        </mxCell>
        <mxCell id="RThocE2uosENRFC7UYjA-32" value="&lt;font style=&quot;font-size: 18px&quot;&gt;&lt;b&gt;TEST SET&lt;/b&gt;&lt;/font&gt;" style="text;html=1;resizable=0;autosize=1;align=center;verticalAlign=middle;points=[];fillColor=none;strokeColor=none;rounded=0;" vertex="1" parent="1">
          <mxGeometry x="475" y="145" width="100" height="20" as="geometry" />
        </mxCell>
        <mxCell id="RThocE2uosENRFC7UYjA-34" value="" style="rounded=0;whiteSpace=wrap;html=1;fillColor=#FFFF00;" vertex="1" parent="1">
          <mxGeometry x="60" y="250" width="270" height="30" as="geometry" />
        </mxCell>
        <mxCell id="RThocE2uosENRFC7UYjA-35" value="" style="rounded=0;whiteSpace=wrap;html=1;fillColor=#00FF00;" vertex="1" parent="1">
          <mxGeometry x="330" y="250" width="90" height="30" as="geometry" />
        </mxCell>
        <mxCell id="RThocE2uosENRFC7UYjA-36" value="" style="rounded=0;whiteSpace=wrap;html=1;fillColor=#0066CC;" vertex="1" parent="1">
          <mxGeometry x="420" y="250" width="240" height="30" as="geometry" />
        </mxCell>
        <mxCell id="RThocE2uosENRFC7UYjA-37" value="&lt;font style=&quot;font-size: 18px&quot;&gt;&lt;b&gt;TRAIN SET&lt;/b&gt;&lt;/font&gt;" style="text;html=1;resizable=0;autosize=1;align=center;verticalAlign=middle;points=[];fillColor=none;strokeColor=none;rounded=0;" vertex="1" parent="1">
          <mxGeometry x="140" y="255" width="110" height="20" as="geometry" />
        </mxCell>
        <mxCell id="RThocE2uosENRFC7UYjA-38" value="&lt;font style=&quot;font-size: 11px&quot;&gt;&lt;b&gt;VALIDATION SET&lt;/b&gt;&lt;/font&gt;" style="text;html=1;resizable=0;autosize=1;align=center;verticalAlign=middle;points=[];fillColor=none;strokeColor=none;rounded=0;" vertex="1" parent="1">
          <mxGeometry x="320" y="255" width="110" height="20" as="geometry" />
        </mxCell>
        <mxCell id="RThocE2uosENRFC7UYjA-39" value="&lt;font style=&quot;font-size: 18px&quot;&gt;&lt;b&gt;TEST SET&lt;/b&gt;&lt;/font&gt;" style="text;html=1;resizable=0;autosize=1;align=center;verticalAlign=middle;points=[];fillColor=none;strokeColor=none;rounded=0;" vertex="1" parent="1">
          <mxGeometry x="475" y="255" width="100" height="20" as="geometry" />
        </mxCell>
        <mxCell id="RThocE2uosENRFC7UYjA-40" value="&lt;font style=&quot;font-size: 14px&quot;&gt;The Network gets trained with the full data. No context how the network performs on unseen data.&lt;/font&gt;" style="text;html=1;resizable=0;autosize=1;align=center;verticalAlign=middle;points=[];fillColor=none;strokeColor=none;rounded=0;" vertex="1" parent="1">
          <mxGeometry x="50" y="90" width="620" height="20" as="geometry" />
        </mxCell>
        <mxCell id="RThocE2uosENRFC7UYjA-41" value="&lt;font style=&quot;font-size: 14px&quot;&gt;The Network gets trained with some of the data (Train),&lt;br&gt;remaining data can be used to evaluate the performance after the training (Test).&lt;/font&gt;" style="text;html=1;resizable=0;autosize=1;align=center;verticalAlign=middle;points=[];fillColor=none;strokeColor=none;rounded=0;" vertex="1" parent="1">
          <mxGeometry x="80" y="180" width="510" height="40" as="geometry" />
        </mxCell>
        <mxCell id="RThocE2uosENRFC7UYjA-42" value="&lt;font style=&quot;font-size: 14px&quot;&gt;The Network gets trained with some of the data (Train),&lt;br&gt;some data can be used to evaluate the performance while training (Validation),&lt;br&gt;remaining data to be used to evaluate the performance after the training (Test)&lt;br&gt;&lt;/font&gt;" style="text;html=1;resizable=0;autosize=1;align=center;verticalAlign=middle;points=[];fillColor=none;strokeColor=none;rounded=0;" vertex="1" parent="1">
          <mxGeometry x="95" y="290" width="500" height="50" as="geometry" />
        </mxCell>
      </root>
    </mxGraphModel>
  </diagram>
</mxfile>
